<svg width="126" height="48" viewBox="0 0 126 48" fill="none" xmlns="http://www.w3.org/2000/svg">
<g clip-path="url(#clip0_6023_144)">
<path d="M11.0215 8.93302C14.1472 12.9011 15.8158 17.7944 15.7553 22.8155V24.0141L16.7865 24.6416C18.119 25.4482 19.1127 26.6993 19.5866 28.1669C19.1705 27.8605 18.7352 27.5803 18.2833 27.3278L15.5333 25.7838L15.0391 28.9001C14.9963 29.1755 14.9389 29.4485 14.8672 29.718H7.16151C7.04692 29.3655 6.95382 29.0129 6.86789 28.6463L6.24484 25.8261L3.70968 27.2362C3.28615 27.473 2.87723 27.7344 2.48507 28.0188C2.96824 26.5682 3.94123 25.3242 5.24224 24.4935L6.22336 23.866V22.7521C6.24106 17.7513 7.92967 12.8952 11.0287 8.93302H11.0215ZM11.0287 6C10.868 6.00039 10.7128 6.05799 10.5918 6.16216L10.5274 6.21857C6.39778 10.7656 4.10466 16.6454 4.08208 22.745C2.32967 23.8643 1.03251 25.5543 0.417263 27.5197C-0.197979 29.485 -0.0921719 31.6007 0.716194 33.4971C1.56776 31.6455 2.99131 30.1058 4.7839 29.0975C4.96368 29.8642 5.2031 30.6161 5.50005 31.3467C5.53771 31.4871 5.62118 31.6114 5.73763 31.7006C5.85408 31.7898 5.99706 31.8388 6.14458 31.8402H16.0847C16.2852 31.8402 16.4857 31.6498 16.586 31.3537C16.8758 30.6592 17.0778 29.9322 17.1875 29.1892C18.9836 30.1932 20.4083 31.7342 21.2553 33.5887C22.1124 31.7017 22.2451 29.5727 21.6287 27.5967C21.0124 25.6206 19.6888 23.9319 17.9037 22.8437C17.9745 16.7082 15.6935 10.7718 11.5157 6.21857C11.4535 6.15008 11.3773 6.09524 11.2922 6.05759C11.2071 6.01993 11.1149 6.00031 11.0215 6H11.0287Z" fill="#4EA8DE"/>
<path d="M11.0216 22.1598C10.4715 22.1597 9.93376 21.9994 9.47611 21.699C9.01846 21.3985 8.6614 20.9714 8.44993 20.4715C8.23847 19.9716 8.18206 19.4212 8.28782 18.8898C8.39358 18.3583 8.65678 17.8696 9.04423 17.4852C9.43169 17.1008 9.92606 16.8379 10.465 16.7297C11.004 16.6215 11.5634 16.6728 12.0728 16.8772C12.5822 17.0815 13.0188 17.4298 13.3275 17.878C13.6361 18.3262 13.8031 18.8544 13.8074 19.3959C13.8159 19.7469 13.7542 20.096 13.6256 20.4235C13.4971 20.7509 13.3043 21.0502 13.0582 21.3042C12.8121 21.5583 12.5176 21.7621 12.1915 21.9041C11.8654 22.046 11.5141 22.1233 11.1576 22.1315C11.1126 22.1387 11.0666 22.1387 11.0216 22.1315V22.1598Z" fill="#4EA8DE"/>
<path d="M14.8959 33.5958C14.7167 33.5901 14.5382 33.6198 14.3708 33.683C14.2034 33.7462 14.0505 33.8416 13.9211 33.9638C13.7917 34.086 13.6884 34.2323 13.6172 34.3943C13.546 34.5563 13.5084 34.7307 13.5066 34.9072V39.067C13.5066 39.4297 13.653 39.7776 13.9135 40.0342C14.1741 40.2907 14.5274 40.4348 14.8959 40.4348C15.2644 40.4348 15.6178 40.2907 15.8783 40.0342C16.1389 39.7776 16.2852 39.4297 16.2852 39.067V34.9636C16.291 34.7877 16.2611 34.6126 16.1973 34.4482C16.1336 34.2839 16.0372 34.1337 15.9139 34.0064C15.7906 33.879 15.6428 33.7772 15.4791 33.7067C15.3154 33.6362 15.139 33.5985 14.9604 33.5958H14.8959Z" fill="#5E60CE"/>
<path d="M7.16154 33.5957C6.97931 33.5863 6.797 33.6129 6.62546 33.6742C6.45392 33.7355 6.29665 33.8302 6.16302 33.9525C6.02939 34.0749 5.92213 34.2224 5.84761 34.3864C5.77309 34.5504 5.73284 34.7275 5.72925 34.9071V39.067C5.72925 39.4297 5.87562 39.7776 6.13617 40.0341C6.39672 40.2906 6.7501 40.4348 7.11857 40.4348C7.48704 40.4348 7.84042 40.2906 8.10097 40.0341C8.36152 39.7776 8.50789 39.4297 8.50789 39.067V34.9635C8.51362 34.7877 8.48373 34.6125 8.41998 34.4482C8.35623 34.2838 8.25989 34.1336 8.13658 34.0063C8.01326 33.879 7.86544 33.7771 7.70173 33.7067C7.53802 33.6362 7.36169 33.5985 7.18302 33.5957H7.16154Z" fill="#5E60CE"/>
<path d="M10.9213 33.5958C10.7426 33.592 10.5649 33.623 10.3984 33.6869C10.2318 33.7507 10.0797 33.8463 9.95068 33.9681C9.82167 34.0899 9.71828 34.2355 9.64644 34.3966C9.5746 34.5577 9.5357 34.7312 9.53198 34.9072V40.6392C9.53198 41.002 9.67836 41.3499 9.93891 41.6064C10.1995 41.8629 10.5528 42.007 10.9213 42.007C11.2898 42.007 11.6432 41.8629 11.9037 41.6064C12.1643 41.3499 12.3106 41.002 12.3106 40.6392V34.9988C12.3164 34.823 12.2865 34.6478 12.2227 34.4835C12.159 34.3191 12.0626 34.1689 11.9393 34.0416C11.816 33.9143 11.6682 33.8124 11.5045 33.7419C11.3408 33.6714 11.1644 33.6337 10.9858 33.631L10.9213 33.5958Z" fill="#5E60CE"/>
</g>
<path d="M49 17.1818V22.8636H34.625V17.1818H49ZM37.4091 11.9545H45.25V31.983C45.25 32.286 45.3021 32.5417 45.4062 32.75C45.5104 32.9489 45.6714 33.1004 45.8892 33.2045C46.107 33.2992 46.3864 33.3466 46.7273 33.3466C46.964 33.3466 47.2386 33.3182 47.5511 33.2614C47.8731 33.2045 48.1098 33.1572 48.2614 33.1193L49.3977 38.6307C49.0473 38.7348 48.5455 38.8627 47.892 39.0142C47.2481 39.1657 46.4811 39.2652 45.5909 39.3125C43.7917 39.4072 42.2813 39.2225 41.0597 38.7585C39.8381 38.285 38.9195 37.5417 38.304 36.5284C37.6884 35.5152 37.3902 34.2462 37.4091 32.7216V11.9545ZM62.4766 39.3977C60.1091 39.3977 58.0826 38.929 56.397 37.9915C54.7114 37.0445 53.4188 35.7282 52.5192 34.0426C51.6196 32.3475 51.1697 30.3826 51.1697 28.1477C51.1697 25.9129 51.6196 23.9527 52.5192 22.267C53.4188 20.572 54.7114 19.2557 56.397 18.3182C58.0826 17.3712 60.1091 16.8977 62.4766 16.8977C64.844 16.8977 66.8705 17.3712 68.5561 18.3182C70.2417 19.2557 71.5343 20.572 72.4339 22.267C73.3336 23.9527 73.7834 25.9129 73.7834 28.1477C73.7834 30.3826 73.3336 32.3475 72.4339 34.0426C71.5343 35.7282 70.2417 37.0445 68.5561 37.9915C66.8705 38.929 64.844 39.3977 62.4766 39.3977ZM62.5334 33.6023C63.1963 33.6023 63.7692 33.3797 64.2521 32.9347C64.7351 32.4896 65.1091 31.8551 65.3743 31.0312C65.6394 30.2074 65.772 29.2273 65.772 28.0909C65.772 26.9451 65.6394 25.965 65.3743 25.1506C65.1091 24.3267 64.7351 23.6922 64.2521 23.2472C63.7692 22.8021 63.1963 22.5795 62.5334 22.5795C61.8326 22.5795 61.2313 22.8021 60.7294 23.2472C60.2275 23.6922 59.844 24.3267 59.5788 25.1506C59.3137 25.965 59.1811 26.9451 59.1811 28.0909C59.1811 29.2273 59.3137 30.2074 59.5788 31.0312C59.844 31.8551 60.2275 32.4896 60.7294 32.9347C61.2313 33.3797 61.8326 33.6023 62.5334 33.6023Z" fill="#4EA8DE"/>
<path d="M84.8629 39.2841C83.3099 39.2841 81.88 38.8769 80.5732 38.0625C79.2758 37.2481 78.2341 36.0123 77.4482 34.3551C76.6716 32.6979 76.2834 30.6098 76.2834 28.0909C76.2834 25.4583 76.6906 23.3182 77.505 21.6705C78.3288 20.0227 79.3894 18.8153 80.6868 18.0483C81.9936 17.2812 83.3667 16.8977 84.8061 16.8977C85.8857 16.8977 86.8326 17.0871 87.647 17.4659C88.4614 17.8352 89.1432 18.3324 89.6925 18.9574C90.2417 19.5729 90.6584 20.25 90.9425 20.9886H91.0561V9.90909H98.897V39H91.1129V35.4205H90.9425C90.6394 36.1591 90.2038 36.822 89.6357 37.4091C89.0769 37.9867 88.3951 38.446 87.5902 38.7869C86.7947 39.1184 85.8857 39.2841 84.8629 39.2841ZM87.7607 33.2614C88.4804 33.2614 89.0959 33.053 89.6072 32.6364C90.1281 32.2102 90.5258 31.6136 90.8004 30.8466C91.0845 30.0701 91.2266 29.1515 91.2266 28.0909C91.2266 27.0114 91.0845 26.0881 90.8004 25.321C90.5258 24.5445 90.1281 23.9527 89.6072 23.5455C89.0959 23.1288 88.4804 22.9205 87.7607 22.9205C87.041 22.9205 86.4254 23.1288 85.9141 23.5455C85.4122 23.9527 85.0239 24.5445 84.7493 25.321C84.4841 26.0881 84.3516 27.0114 84.3516 28.0909C84.3516 29.1705 84.4841 30.0985 84.7493 30.875C85.0239 31.642 85.4122 32.2339 85.9141 32.6506C86.4254 33.0578 87.041 33.2614 87.7607 33.2614ZM113.258 39.3977C110.89 39.3977 108.864 38.929 107.178 37.9915C105.493 37.0445 104.2 35.7282 103.3 34.0426C102.401 32.3475 101.951 30.3826 101.951 28.1477C101.951 25.9129 102.401 23.9527 103.3 22.267C104.2 20.572 105.493 19.2557 107.178 18.3182C108.864 17.3712 110.89 16.8977 113.258 16.8977C115.625 16.8977 117.652 17.3712 119.337 18.3182C121.023 19.2557 122.316 20.572 123.215 22.267C124.115 23.9527 124.565 25.9129 124.565 28.1477C124.565 30.3826 124.115 32.3475 123.215 34.0426C122.316 35.7282 121.023 37.0445 119.337 37.9915C117.652 38.929 115.625 39.3977 113.258 39.3977ZM113.315 33.6023C113.978 33.6023 114.55 33.3797 115.033 32.9347C115.516 32.4896 115.89 31.8551 116.156 31.0312C116.421 30.2074 116.553 29.2273 116.553 28.0909C116.553 26.9451 116.421 25.965 116.156 25.1506C115.89 24.3267 115.516 23.6922 115.033 23.2472C114.55 22.8021 113.978 22.5795 113.315 22.5795C112.614 22.5795 112.013 22.8021 111.511 23.2472C111.009 23.6922 110.625 24.3267 110.36 25.1506C110.095 25.965 109.962 26.9451 109.962 28.0909C109.962 29.2273 110.095 30.2074 110.36 31.0312C110.625 31.8551 111.009 32.4896 111.511 32.9347C112.013 33.3797 112.614 33.6023 113.315 33.6023Z" fill="#5E60CE"/>
<defs>
<clipPath id="clip0_6023_144">
<rect width="22" height="36" fill="white" transform="translate(0 6)"/>
</clipPath>
</defs>
</svg>
